<mxfile host="app.diagrams.net" modified="2022-11-07T00:02:03.859Z" agent="5.0 (Windows NT 10.0; WOW64) AppleWebKit/537.36 (KHTML, like Gecko) Chrome/86.0.4240.198 Safari/537.36" etag="lY6-cwGMyddLpJ2gspJI" version="20.5.2" type="github">
  <diagram id="JeJywL8coe2lzpXu5Vt7" name="Page-1">
    <mxGraphModel dx="1980" dy="824" grid="0" gridSize="10" guides="1" tooltips="1" connect="1" arrows="1" fold="1" page="0" pageScale="1" pageWidth="827" pageHeight="1169" math="0" shadow="0">
      <root>
        <mxCell id="0" />
        <mxCell id="1" parent="0" />
        <mxCell id="wiyAAsMCAdzFuh4VQj0b-39" value="" style="rounded=0;whiteSpace=wrap;html=1;fontSize=17;fillColor=#fad7ac;strokeColor=#b46504;" vertex="1" parent="1">
          <mxGeometry x="170.5" y="531.75" width="75" height="88" as="geometry" />
        </mxCell>
        <mxCell id="wiyAAsMCAdzFuh4VQj0b-23" value="" style="rounded=0;whiteSpace=wrap;html=1;fontSize=17;fillColor=#dae8fc;strokeColor=#6c8ebf;" vertex="1" parent="1">
          <mxGeometry x="-2" y="530.5" width="62" height="89" as="geometry" />
        </mxCell>
        <mxCell id="wiyAAsMCAdzFuh4VQj0b-22" value="" style="rounded=0;whiteSpace=wrap;html=1;fontSize=17;fillColor=#dae8fc;strokeColor=#6c8ebf;" vertex="1" parent="1">
          <mxGeometry x="-174" y="533" width="62" height="89" as="geometry" />
        </mxCell>
        <mxCell id="wiyAAsMCAdzFuh4VQj0b-20" value="" style="rounded=0;whiteSpace=wrap;html=1;fontSize=17;fillColor=#f8cecc;strokeColor=#b85450;" vertex="1" parent="1">
          <mxGeometry x="-193.5" y="562" width="288" height="26" as="geometry" />
        </mxCell>
        <mxCell id="wiyAAsMCAdzFuh4VQj0b-2" value="" style="rounded=0;whiteSpace=wrap;html=1;fontSize=17;fontColor=#030101;" vertex="1" parent="1">
          <mxGeometry x="-218" y="94" width="1046" height="172" as="geometry" />
        </mxCell>
        <mxCell id="1hX16fWDbQH54hL-igkK-1" value="&lt;font style=&quot;font-size: 17px; user-select: auto;&quot;&gt;semaphore：&lt;br style=&quot;user-select: auto;&quot;&gt;&lt;br style=&quot;user-select: auto;&quot;&gt;semaphore就是对共享资源(key)的监控；&lt;br style=&quot;user-select: auto;&quot;&gt;能够让很多个percessor&lt;b style=&quot;user-select: auto;&quot;&gt;&lt;font style=&quot;user-select: auto;&quot; color=&quot;#ea6b66&quot;&gt;共享&lt;/font&gt;&lt;/b&gt;的；&lt;br style=&quot;user-select: auto;&quot;&gt;同时具有&lt;font color=&quot;#ea6b66&quot;&gt;&lt;b&gt;阻塞&lt;/b&gt;&lt;/font&gt;性质的&lt;br style=&quot;user-select: auto;&quot;&gt;&lt;/font&gt;" style="text;html=1;align=left;verticalAlign=middle;resizable=0;points=[];autosize=1;strokeColor=none;fillColor=none;" parent="1" vertex="1">
          <mxGeometry x="-203" y="94" width="328" height="112" as="geometry" />
        </mxCell>
        <mxCell id="1hX16fWDbQH54hL-igkK-2" value="&lt;font style=&quot;font-size: 17px; user-select: auto;&quot;&gt;&lt;font style=&quot;user-select: auto;&quot; color=&quot;#333333&quot;&gt;semaphore的类型分类：&lt;br style=&quot;user-select: auto;&quot;&gt;&lt;/font&gt;&lt;br style=&quot;user-select: auto;&quot;&gt;&lt;font style=&quot;user-select: auto;&quot; color=&quot;#333333&quot;&gt;1. 按照可以能融入多少个process进入：&lt;br&gt;&lt;span style=&quot;white-space: pre;&quot;&gt; &lt;/span&gt;a.最多只能让一个进入&lt;br&gt;&lt;span style=&quot;white-space: pre;&quot;&gt; &lt;/span&gt;b.可以让多个进入&lt;br&gt;2. 按照suspend实现&lt;br&gt;&lt;span style=&quot;white-space: pre;&quot;&gt; &lt;/span&gt;a.block-set: 可能有starving&lt;br&gt;&lt;span style=&quot;white-space: pre;&quot;&gt; &lt;/span&gt;b.block-que: 不会有starvation&lt;br style=&quot;user-select: auto;&quot;&gt;&lt;/font&gt;&lt;span style=&quot;white-space: pre; user-select: auto;&quot;&gt; &lt;/span&gt;&lt;br style=&quot;user-select: auto;&quot;&gt;&lt;/font&gt;" style="text;html=1;align=left;verticalAlign=middle;resizable=0;points=[];autosize=1;strokeColor=none;fillColor=none;fontSize=17;fontColor=#EA6B66;" parent="1" vertex="1">
          <mxGeometry x="203" y="94" width="317" height="192" as="geometry" />
        </mxCell>
        <mxCell id="1hX16fWDbQH54hL-igkK-3" value="Semaphore的证明可以使用&lt;br&gt;#S&amp;gt;=0&lt;br&gt;#S=S0+#up()+#down()" style="text;html=1;align=left;verticalAlign=middle;resizable=0;points=[];autosize=1;strokeColor=none;fillColor=none;fontSize=17;fontColor=#030101;" parent="1" vertex="1">
          <mxGeometry x="584" y="114" width="225" height="72" as="geometry" />
        </mxCell>
        <mxCell id="1hX16fWDbQH54hL-igkK-4" value="" style="endArrow=none;dashed=1;html=1;dashPattern=1 3;strokeWidth=2;rounded=0;fontSize=17;fontColor=#030101;" parent="1" edge="1">
          <mxGeometry width="50" height="50" relative="1" as="geometry">
            <mxPoint x="150" y="261" as="sourcePoint" />
            <mxPoint x="150" y="94" as="targetPoint" />
          </mxGeometry>
        </mxCell>
        <mxCell id="1hX16fWDbQH54hL-igkK-5" value="" style="endArrow=none;dashed=1;html=1;dashPattern=1 3;strokeWidth=2;rounded=0;fontSize=17;fontColor=#030101;" parent="1" edge="1">
          <mxGeometry width="50" height="50" relative="1" as="geometry">
            <mxPoint x="536" y="261" as="sourcePoint" />
            <mxPoint x="536" y="94" as="targetPoint" />
          </mxGeometry>
        </mxCell>
        <mxCell id="wiyAAsMCAdzFuh4VQj0b-3" value="&lt;h3&gt;而对阻塞就有&lt;br&gt;2种不同的使用场景&lt;/h3&gt;" style="text;html=1;align=center;verticalAlign=middle;resizable=0;points=[];autosize=1;strokeColor=none;fillColor=none;fontSize=17;fontColor=#030101;" vertex="1" parent="1">
          <mxGeometry x="-453" y="313" width="188" height="98" as="geometry" />
        </mxCell>
        <mxCell id="wiyAAsMCAdzFuh4VQj0b-4" value="1. 实现说你必须要在我满足之后才能继续；我是你要满足的条件性" style="text;html=1;align=left;verticalAlign=middle;resizable=0;points=[];autosize=1;strokeColor=none;fillColor=none;fontSize=17;fontColor=#030101;" vertex="1" parent="1">
          <mxGeometry x="-218" y="315" width="513" height="32" as="geometry" />
        </mxCell>
        <mxCell id="wiyAAsMCAdzFuh4VQj0b-5" value="Ben and Bill" style="text;html=1;align=left;verticalAlign=middle;resizable=0;points=[];autosize=1;strokeColor=none;fillColor=none;fontSize=17;fontColor=#030101;" vertex="1" parent="1">
          <mxGeometry x="319" y="303" width="109" height="32" as="geometry" />
        </mxCell>
        <mxCell id="wiyAAsMCAdzFuh4VQj0b-6" value="Cat and witch: Ass2" style="text;html=1;align=left;verticalAlign=middle;resizable=0;points=[];autosize=1;strokeColor=none;fillColor=none;fontSize=17;fontColor=#030101;" vertex="1" parent="1">
          <mxGeometry x="319" y="335" width="167" height="32" as="geometry" />
        </mxCell>
        <mxCell id="wiyAAsMCAdzFuh4VQj0b-7" value="2. 在我在的时候你不能在；互斥性" style="text;html=1;align=left;verticalAlign=middle;resizable=0;points=[];autosize=1;strokeColor=none;fillColor=none;fontSize=17;fontColor=#030101;" vertex="1" parent="1">
          <mxGeometry x="-218" y="427" width="275" height="32" as="geometry" />
        </mxCell>
        <mxCell id="wiyAAsMCAdzFuh4VQj0b-8" value="&lt;h4&gt;a. 就是2种process之间是互斥的&lt;br&gt;并且同一种process也是互斥的&lt;/h4&gt;" style="text;html=1;align=center;verticalAlign=middle;resizable=0;points=[];autosize=1;strokeColor=none;fillColor=none;fontSize=17;fontColor=#030101;" vertex="1" parent="1">
          <mxGeometry x="-175" y="453" width="265" height="97" as="geometry" />
        </mxCell>
        <mxCell id="wiyAAsMCAdzFuh4VQj0b-13" style="edgeStyle=orthogonalEdgeStyle;rounded=0;orthogonalLoop=1;jettySize=auto;html=1;exitX=1;exitY=0.5;exitDx=0;exitDy=0;fontSize=17;fontColor=#030101;endArrow=none;endFill=0;startArrow=classic;startFill=1;" edge="1" parent="1" source="wiyAAsMCAdzFuh4VQj0b-9" target="wiyAAsMCAdzFuh4VQj0b-11">
          <mxGeometry relative="1" as="geometry" />
        </mxCell>
        <mxCell id="wiyAAsMCAdzFuh4VQj0b-14" style="edgeStyle=orthogonalEdgeStyle;rounded=0;orthogonalLoop=1;jettySize=auto;html=1;exitX=0;exitY=0.5;exitDx=0;exitDy=0;fontSize=17;fontColor=#030101;startArrow=classic;startFill=1;endArrow=none;endFill=0;" edge="1" parent="1" source="wiyAAsMCAdzFuh4VQj0b-9" target="wiyAAsMCAdzFuh4VQj0b-12">
          <mxGeometry relative="1" as="geometry" />
        </mxCell>
        <mxCell id="wiyAAsMCAdzFuh4VQj0b-9" value="database" style="rounded=0;whiteSpace=wrap;html=1;fontSize=17;fontColor=#030101;" vertex="1" parent="1">
          <mxGeometry x="-90" y="561" width="81" height="28" as="geometry" />
        </mxCell>
        <mxCell id="wiyAAsMCAdzFuh4VQj0b-11" value="writer" style="text;html=1;align=center;verticalAlign=middle;resizable=0;points=[];autosize=1;strokeColor=none;fillColor=none;fontSize=17;fontColor=#030101;" vertex="1" parent="1">
          <mxGeometry x="3" y="559" width="60" height="32" as="geometry" />
        </mxCell>
        <mxCell id="wiyAAsMCAdzFuh4VQj0b-12" value="reader" style="text;html=1;align=center;verticalAlign=middle;resizable=0;points=[];autosize=1;strokeColor=none;fillColor=none;fontSize=17;fontColor=#030101;" vertex="1" parent="1">
          <mxGeometry x="-177" y="559" width="67" height="32" as="geometry" />
        </mxCell>
        <mxCell id="wiyAAsMCAdzFuh4VQj0b-15" value="writer" style="text;html=1;align=center;verticalAlign=middle;resizable=0;points=[];autosize=1;strokeColor=none;fillColor=none;fontSize=17;fontColor=#030101;" vertex="1" parent="1">
          <mxGeometry x="3" y="586" width="60" height="32" as="geometry" />
        </mxCell>
        <mxCell id="wiyAAsMCAdzFuh4VQj0b-16" value="writer" style="text;html=1;align=center;verticalAlign=middle;resizable=0;points=[];autosize=1;strokeColor=none;fillColor=none;fontSize=17;fontColor=#030101;" vertex="1" parent="1">
          <mxGeometry x="3" y="533" width="60" height="32" as="geometry" />
        </mxCell>
        <mxCell id="wiyAAsMCAdzFuh4VQj0b-17" value="reader" style="text;html=1;align=center;verticalAlign=middle;resizable=0;points=[];autosize=1;strokeColor=none;fillColor=none;fontSize=17;fontColor=#030101;" vertex="1" parent="1">
          <mxGeometry x="-179" y="586" width="67" height="32" as="geometry" />
        </mxCell>
        <mxCell id="wiyAAsMCAdzFuh4VQj0b-18" value="reader" style="text;html=1;align=center;verticalAlign=middle;resizable=0;points=[];autosize=1;strokeColor=none;fillColor=none;fontSize=17;fontColor=#030101;" vertex="1" parent="1">
          <mxGeometry x="-177" y="533" width="67" height="32" as="geometry" />
        </mxCell>
        <mxCell id="wiyAAsMCAdzFuh4VQj0b-24" value="&lt;h4&gt;b. 就是2种process之间是互斥的&lt;br&gt;但其中同一种process不互斥的&lt;/h4&gt;" style="text;html=1;align=center;verticalAlign=middle;resizable=0;points=[];autosize=1;strokeColor=none;fillColor=none;fontSize=17;fontColor=#030101;" vertex="1" parent="1">
          <mxGeometry x="163" y="453" width="266" height="97" as="geometry" />
        </mxCell>
        <mxCell id="wiyAAsMCAdzFuh4VQj0b-25" value="overained" style="text;html=1;align=center;verticalAlign=middle;resizable=0;points=[];autosize=1;strokeColor=none;fillColor=none;fontSize=17;fontColor=#030101;" vertex="1" parent="1">
          <mxGeometry x="-102" y="631" width="93" height="32" as="geometry" />
        </mxCell>
        <mxCell id="wiyAAsMCAdzFuh4VQj0b-28" value="" style="rounded=0;whiteSpace=wrap;html=1;fontSize=17;fillColor=#f8cecc;strokeColor=#b85450;" vertex="1" parent="1">
          <mxGeometry x="158" y="560.75" width="288" height="26" as="geometry" />
        </mxCell>
        <mxCell id="wiyAAsMCAdzFuh4VQj0b-29" style="edgeStyle=orthogonalEdgeStyle;rounded=0;orthogonalLoop=1;jettySize=auto;html=1;exitX=1;exitY=0.5;exitDx=0;exitDy=0;fontSize=17;fontColor=#030101;endArrow=none;endFill=0;startArrow=classic;startFill=1;" edge="1" parent="1" source="wiyAAsMCAdzFuh4VQj0b-31" target="wiyAAsMCAdzFuh4VQj0b-32">
          <mxGeometry relative="1" as="geometry" />
        </mxCell>
        <mxCell id="wiyAAsMCAdzFuh4VQj0b-30" style="edgeStyle=orthogonalEdgeStyle;rounded=0;orthogonalLoop=1;jettySize=auto;html=1;exitX=0;exitY=0.5;exitDx=0;exitDy=0;fontSize=17;fontColor=#030101;startArrow=classic;startFill=1;endArrow=none;endFill=0;" edge="1" parent="1" source="wiyAAsMCAdzFuh4VQj0b-31" target="wiyAAsMCAdzFuh4VQj0b-33">
          <mxGeometry relative="1" as="geometry" />
        </mxCell>
        <mxCell id="wiyAAsMCAdzFuh4VQj0b-31" value="database" style="rounded=0;whiteSpace=wrap;html=1;fontSize=17;fontColor=#030101;" vertex="1" parent="1">
          <mxGeometry x="261.5" y="559.75" width="81" height="28" as="geometry" />
        </mxCell>
        <mxCell id="wiyAAsMCAdzFuh4VQj0b-32" value="writer" style="text;html=1;align=center;verticalAlign=middle;resizable=0;points=[];autosize=1;strokeColor=none;fillColor=none;fontSize=17;fontColor=#030101;" vertex="1" parent="1">
          <mxGeometry x="354.5" y="557.75" width="60" height="32" as="geometry" />
        </mxCell>
        <mxCell id="wiyAAsMCAdzFuh4VQj0b-33" value="reader" style="text;html=1;align=center;verticalAlign=middle;resizable=0;points=[];autosize=1;strokeColor=none;fillColor=none;fontSize=17;fontColor=#030101;" vertex="1" parent="1">
          <mxGeometry x="174.5" y="557.75" width="67" height="32" as="geometry" />
        </mxCell>
        <mxCell id="wiyAAsMCAdzFuh4VQj0b-34" value="writer" style="text;html=1;align=center;verticalAlign=middle;resizable=0;points=[];autosize=1;strokeColor=none;fillColor=none;fontSize=17;fontColor=#030101;" vertex="1" parent="1">
          <mxGeometry x="354.5" y="584.75" width="60" height="32" as="geometry" />
        </mxCell>
        <mxCell id="wiyAAsMCAdzFuh4VQj0b-36" value="reader" style="text;html=1;align=center;verticalAlign=middle;resizable=0;points=[];autosize=1;strokeColor=none;fillColor=none;fontSize=17;fontColor=#030101;" vertex="1" parent="1">
          <mxGeometry x="172.5" y="584.75" width="67" height="32" as="geometry" />
        </mxCell>
        <mxCell id="wiyAAsMCAdzFuh4VQj0b-37" value="reader" style="text;html=1;align=center;verticalAlign=middle;resizable=0;points=[];autosize=1;strokeColor=none;fillColor=none;fontSize=17;fontColor=#030101;" vertex="1" parent="1">
          <mxGeometry x="174.5" y="531.75" width="67" height="32" as="geometry" />
        </mxCell>
        <mxCell id="wiyAAsMCAdzFuh4VQj0b-38" value="writer" style="text;html=1;align=center;verticalAlign=middle;resizable=0;points=[];autosize=1;strokeColor=none;fillColor=none;fontSize=17;fontColor=#030101;" vertex="1" parent="1">
          <mxGeometry x="354.5" y="525.75" width="60" height="32" as="geometry" />
        </mxCell>
        <mxCell id="wiyAAsMCAdzFuh4VQj0b-40" value="&lt;h5&gt;&lt;b&gt;reader之间是不互斥的&lt;/b&gt;&lt;/h5&gt;" style="text;html=1;align=center;verticalAlign=middle;resizable=0;points=[];autosize=1;strokeColor=none;fillColor=none;fontSize=17;fontColor=#030101;" vertex="1" parent="1">
          <mxGeometry x="166" y="603" width="160" height="75" as="geometry" />
        </mxCell>
        <mxCell id="wiyAAsMCAdzFuh4VQj0b-41" value="实现是：rw+对reader进行计数，&lt;br style=&quot;user-select: auto;&quot;&gt;第一个进入的时候down()&lt;br style=&quot;user-select: auto;&quot;&gt;最后一个出来up()" style="text;html=1;align=center;verticalAlign=middle;resizable=0;points=[];autosize=1;strokeColor=none;fillColor=none;fontSize=17;fontColor=#030101;" vertex="1" parent="1">
          <mxGeometry x="164" y="682" width="265" height="72" as="geometry" />
        </mxCell>
        <mxCell id="wiyAAsMCAdzFuh4VQj0b-42" value="实现是：rw每个process都down" style="text;html=1;align=center;verticalAlign=middle;resizable=0;points=[];autosize=1;strokeColor=none;fillColor=none;fontSize=17;fontColor=#030101;" vertex="1" parent="1">
          <mxGeometry x="-177" y="710" width="255" height="32" as="geometry" />
        </mxCell>
        <mxCell id="wiyAAsMCAdzFuh4VQj0b-56" value="&lt;font style=&quot;font-size: 17px; user-select: auto;&quot;&gt;&lt;font color=&quot;#030101&quot;&gt;&lt;b&gt;&lt;font style=&quot;user-select: auto;&quot;&gt;c. 就是两个process之间只有一种对另一种&lt;br style=&quot;user-select: auto;&quot;&gt;&lt;/font&gt;有影响，但是另一种不影响这个，并且&lt;br style=&quot;user-select: auto;&quot;&gt;并一种之间是不互相影响的&lt;/b&gt;&lt;/font&gt;&lt;br style=&quot;user-select: auto;&quot;&gt;&lt;/font&gt;" style="text;html=1;align=left;verticalAlign=middle;resizable=0;points=[];autosize=1;strokeColor=none;fillColor=none;fontSize=17;fontColor=#EA6B66;" vertex="1" parent="1">
          <mxGeometry x="533" y="458.5" width="340" height="72" as="geometry" />
        </mxCell>
        <mxCell id="wiyAAsMCAdzFuh4VQj0b-58" value="" style="shape=image;verticalLabelPosition=bottom;labelBackgroundColor=default;verticalAlign=top;aspect=fixed;imageAspect=0;image=https://img95.699pic.com/element/40203/3280.png_300.png;" vertex="1" parent="1">
          <mxGeometry x="563" y="565" width="70" height="70" as="geometry" />
        </mxCell>
        <mxCell id="wiyAAsMCAdzFuh4VQj0b-60" style="edgeStyle=orthogonalEdgeStyle;rounded=0;orthogonalLoop=1;jettySize=auto;html=1;exitX=0;exitY=0.5;exitDx=0;exitDy=0;entryX=1;entryY=0.5;entryDx=0;entryDy=0;fontSize=17;fontColor=#030101;startArrow=none;startFill=0;endArrow=classic;endFill=1;" edge="1" parent="1" source="wiyAAsMCAdzFuh4VQj0b-59" target="wiyAAsMCAdzFuh4VQj0b-58">
          <mxGeometry relative="1" as="geometry" />
        </mxCell>
        <mxCell id="wiyAAsMCAdzFuh4VQj0b-59" value="" style="shape=image;verticalLabelPosition=bottom;labelBackgroundColor=default;verticalAlign=top;aspect=fixed;imageAspect=0;image=https://thumbs.dreamstime.com/z/%E5%8F%AF%E7%88%B1%E7%9A%84%E5%B0%8F%E5%A5%B3%E5%B7%AB%E5%8D%A1%E9%80%9A%E6%89%8B-%E5%8F%AF%E7%88%B1%E5%B0%8F%E5%A5%B3%E5%B7%AB%E5%8D%A1%E9%80%9A%E4%B8%BE%E8%B5%B7%E6%89%8B%E7%9A%84%E6%8F%92%E5%9B%BE-227620523.jpg;" vertex="1" parent="1">
          <mxGeometry x="745" y="555.8299999999999" width="85" height="89.84" as="geometry" />
        </mxCell>
        <mxCell id="wiyAAsMCAdzFuh4VQj0b-61" value="&lt;h5 style=&quot;user-select: auto;&quot;&gt;&lt;b style=&quot;user-select: auto;&quot;&gt;鬼之间是不互斥的；只女巫影响鬼；鬼不影响女巫&lt;/b&gt;&lt;/h5&gt;" style="text;html=1;align=center;verticalAlign=middle;resizable=0;points=[];autosize=1;strokeColor=none;fillColor=none;fontSize=17;fontColor=#030101;" vertex="1" parent="1">
          <mxGeometry x="545" y="624" width="328" height="75" as="geometry" />
        </mxCell>
      </root>
    </mxGraphModel>
  </diagram>
</mxfile>
